<?xml version="1.0" standalone="no"?>
<!DOCTYPE svg PUBLIC "-//W3C//DTD SVG 20010904//EN"
 "http://www.w3.org/TR/2001/REC-SVG-20010904/DTD/svg10.dtd">
<svg version="1.0" xmlns="http://www.w3.org/2000/svg"
 width="170.000000pt" height="189.000000pt" viewBox="0 0 170.000000 189.000000"
 preserveAspectRatio="xMidYMid meet">
<metadata>
Created by potrace 1.10, written by Peter Selinger 2001-2011
</metadata>
<g transform="translate(0.000000,189.000000) scale(0.050000,-0.050000)"
fill="#dc143c" stroke="none">
<path d="M1270 3519 c-657 -103 -1007 -518 -1091 -1294 -118 -1080 639 -1849
1701 -1728 841 96 1335 700 1311 1603 -20 752 -355 1242 -951 1391 -155 38
-786 57 -970 28z m1070 -344 c353 -93 499 -260 582 -664 20 -99 52 -208 70
-243 24 -43 30 -83 20 -135 -14 -73 -40 -95 -59 -48 -5 14 -11 -2 -12 -35 -4
-127 -102 -288 -211 -346 -73 -39 -1871 -56 -2027 -19 -191 45 -291 234 -289
545 4 596 228 890 737 969 185 28 1057 11 1189 -24z m-1968 -1503 c6 -15 2
-80 -8 -145 -11 -64 -20 -93 -22 -63 -1 29 -12 79 -25 110 -13 31 -22 63 -20
71 2 8 -11 15 -28 15 -17 0 -26 9 -19 20 18 30 110 24 122 -8z m2728 16 c0 -6
-13 -36 -28 -65 -15 -29 -36 -75 -47 -103 -18 -47 -20 -45 -34 36 -16 94 8
144 71 144 21 0 38 -5 38 -12z m-2461 -117 c20 -23 20 -60 0 -170 -27 -150 -7
-307 53 -425 47 -90 -4 -82 -89 16 -181 205 -211 608 -45 608 32 0 68 -13 81
-29z m1548 7 c121 -55 65 -143 -111 -175 -311 -57 -496 -232 -436 -413 27 -81
24 -79 100 -40 77 40 61 98 -23 85 -96 -14 -64 31 70 101 70 36 144 78 165 94
71 54 -35 36 -160 -27 -136 -69 -166 -48 -51 35 163 118 321 151 367 76 18
-29 13 -43 -28 -75 l-50 -40 75 13 c250 42 239 -326 -11 -394 -106 -28 -259
-11 -345 40 -54 32 -68 34 -77 10 -35 -92 -112 11 -112 150 0 125 55 228 168
317 l52 41 -51 12 c-105 27 -109 151 -5 142 35 -2 110 11 165 31 118 42 229
48 298 17z m695 -10 c84 -102 4 -447 -137 -593 -100 -102 -105 -96 -52 60 52
152 58 255 24 403 -33 144 80 233 165 130z m-1285 -5 c41 -27 20 -129 -32
-155 -74 -36 -77 -49 -9 -36 88 18 85 -32 -6 -115 -86 -78 -92 -116 -10 -57
78 56 77 24 -2 -51 -60 -58 -61 -61 -48 -201 12 -131 10 -143 -27 -153 -55
-14 -83 20 -83 101 l0 69 -80 -73 c-87 -78 -102 -83 -161 -51 -71 37 -47 104
66 189 l104 78 -69 18 c-66 17 -99 43 -100 80 0 10 35 48 78 87 l78 70 -69 64
c-106 97 -80 130 110 138 84 4 171 9 193 11 22 2 52 -4 67 -13z m-625 -53 c30
-46 30 -60 -2 -191 -41 -166 -32 -315 30 -499 51 -151 45 -161 -47 -80 -245
216 -289 820 -60 820 27 0 60 -21 79 -50z m1570 24 c163 -125 99 -549 -118
-778 -93 -98 -110 -81 -60 59 56 160 65 293 34 466 -45 245 16 352 144 253z
m-784 -784 c121 -77 279 -117 424 -107 129 9 124 -12 -11 -52 -257 -75 -434
-57 -491 49 -21 39 -23 38 -104 -15 -70 -46 -104 -55 -219 -55 -168 0 -224 38
-83 57 111 15 306 89 306 116 0 11 -33 13 -75 6 l-75 -12 60 41 c83 58 143 52
268 -28z"/>
<path d="M1952 3077 c-18 -25 -32 -60 -32 -78 0 -17 -19 -52 -42 -76 l-41 -45
106 14 c59 7 140 30 181 51 146 73 245 26 388 -187 138 -207 258 -290 282
-196 11 43 46 55 46 17 0 -13 4 -19 10 -14 31 31 -81 266 -172 359 -188 193
-382 211 -571 51 -79 -67 -131 -71 -69 -5 56 60 50 139 -11 148 -27 4 -55 -11
-75 -39z"/>
<path d="M1272 3068 c-14 -36 -4 -58 54 -123 60 -66 24 -55 -111 35 -259 173
-581 28 -677 -306 -15 -54 22 -174 54 -174 50 0 143 85 220 201 162 245 267
300 424 222 41 -21 121 -43 179 -49 l105 -12 -38 41 c-21 22 -45 65 -52 94
-25 100 -129 147 -158 71z"/>
<path d="M2110 2858 c-239 -139 -201 -480 58 -529 201 -38 408 199 316 363
-15 27 -17 13 -10 -55 30 -267 -317 -397 -455 -171 -153 252 166 521 385 324
l66 -59 -63 67 c-70 75 -220 105 -297 60z"/>
<path d="M1283 2826 c189 -117 150 -405 -65 -469 -43 -13 -74 -27 -69 -32 48
-49 245 111 270 220 27 121 -78 316 -169 314 -11 0 4 -15 33 -33z"/>
<path d="M1035 2760 c-110 -86 -104 -251 11 -321 209 -127 417 154 230 311
-72 61 -171 65 -241 10z"/>
<path d="M900 2485 c0 -32 137 -145 176 -144 19 0 8 12 -28 27 -34 15 -81 52
-105 82 -24 31 -43 46 -43 35z"/>
<path d="M472 2425 c-71 -246 -9 -476 148 -544 53 -23 4 -17 -70 8 -39 14 -39
14 -2 -17 111 -90 277 -63 423 69 60 54 116 99 124 99 75 0 -244 -226 -355
-251 l-70 -17 60 -11 c107 -22 251 13 329 79 39 33 100 81 136 105 35 25 65
51 65 58 0 19 -180 56 -213 43 -15 -6 -27 1 -27 14 0 17 -15 15 -49 -8 -56
-36 -79 -41 -62 -13 7 11 -7 15 -32 10 -24 -4 -55 1 -69 13 -18 14 -38 14 -65
-1 -51 -27 -89 -27 -73 -1 7 11 2 20 -10 20 -12 0 -17 9 -10 20 7 11 5 20 -5
20 -32 0 -22 78 11 86 31 9 31 10 -1 12 -21 1 -35 18 -35 43 0 34 8 39 45 28
87 -27 109 -51 35 -40 -66 10 -67 9 -16 -11 35 -13 67 -14 88 -2 29 16 23 23
-39 46 -40 14 -73 33 -73 42 0 8 48 -6 107 -32 73 -32 117 -41 139 -29 24 14
53 0 113 -55 116 -104 100 -39 -18 75 -195 187 -373 226 -478 104 l-48 -55 14
64 c15 67 1 90 -17 29z m339 -386 c7 -12 28 -16 45 -9 18 7 26 5 17 -4 -21
-20 -153 -24 -153 -4 0 14 33 33 64 36 7 1 20 -8 27 -19z m139 -79 c-43 -44
-110 -89 -149 -100 -121 -34 -137 -21 -24 18 59 21 136 65 170 100 34 34 66
62 72 62 5 0 -26 -36 -69 -80z"/>
<path d="M2528 2402 c-98 -57 -279 -238 -259 -258 6 -5 47 23 91 64 61 55 90
69 114 55 22 -12 65 -4 134 27 106 47 135 40 148 -34 3 -21 -11 -36 -40 -42
-45 -8 -45 -9 -2 -11 51 -3 57 -83 7 -83 -27 -1 -28 -3 -1 -22 23 -16 16 -18
-30 -9 l-60 11 50 -29 c38 -23 42 -30 15 -30 -19 -1 -35 -9 -35 -18 0 -22
-132 -18 -153 5 -10 11 -5 12 13 2 17 -9 23 -9 14 1 -21 23 -77 30 -63 7 18
-28 -17 -21 -67 13 -24 17 -44 24 -44 14 0 -9 -41 -18 -91 -20 -138 -6 -190
-40 -118 -77 30 -16 90 -60 133 -99 109 -99 180 -120 366 -110 54 3 50 7 -41
38 -113 39 -190 89 -278 181 -88 93 -43 74 66 -27 154 -144 430 -183 434 -60
0 10 17 44 37 75 69 102 82 433 20 492 -7 6 -6 -19 2 -57 l15 -69 -48 56 c-74
86 -197 91 -329 14z m78 -530 c35 -7 95 -3 133 8 38 10 72 16 77 11 4 -5 -29
-18 -74 -30 -118 -32 -216 0 -313 102 l-79 84 95 -81 c53 -45 125 -87 161 -94z"/>
<path d="M1364 2366 c-71 -35 -151 -127 -173 -201 -21 -70 39 -57 69 15 78
188 217 221 296 70 35 -66 42 -72 43 -34 3 147 -104 215 -235 150z"/>
<path d="M1790 2367 c-38 -38 -70 -114 -69 -163 0 -20 17 -3 39 37 82 156 190
140 289 -42 55 -102 91 -126 91 -62 0 148 -261 319 -350 230z"/>
<path d="M1424 2111 c-214 -52 -166 -68 208 -70 547 -4 540 -5 338 58 -154 47
-379 52 -546 12z"/>
<path d="M1270 1945 c-58 -20 -102 -49 -106 -68 -11 -59 65 -60 188 -2 176 82
481 81 662 -2 170 -79 279 -15 116 67 -96 47 -728 52 -860 5z"/>
<path d="M2040 1098 c0 -14 -19 -45 -42 -70 l-41 -44 45 -15 c52 -16 124 54
114 109 -8 38 -76 56 -76 20z"/>
<path d="M1785 926 c-73 -14 -52 -46 30 -46 91 1 146 28 95 47 -35 14 -50 13
-125 -1z"/>
<path d="M1304 1310 c-62 -71 -55 -77 36 -30 84 43 105 80 44 80 -20 0 -56
-23 -80 -50z"/>
<path d="M2625 596 c19 -298 -1663 -311 -1770 -13 -8 22 -19 22 -67 -4 -293
-156 561 -331 1357 -278 736 49 1036 196 665 325 -188 66 -191 65 -185 -30z"/>
</g>
</svg>
